<?xml version="1.0" encoding="utf-8"?>
<!-- Generator: Adobe Illustrator 26.2.1, SVG Export Plug-In . SVG Version: 6.00 Build 0)  -->
<svg version="1.1" id="Layer_1" xmlns="http://www.w3.org/2000/svg" xmlns:xlink="http://www.w3.org/1999/xlink" x="0px" y="0px"
	 viewBox="0 0 512 512" style="enable-background:new 0 0 512 512;" xml:space="preserve">
<style type="text/css">
	.st0{fill:#FFFFFF;}
</style>
<path class="st0" d="M256,0C114.6,0,0,114.6,0,256s114.6,256,256,256s256-114.6,256-256S397.4,0,256,0z M320,384H192
	c-13.2,0-24-10.8-24-24s10.8-24,24-24h40V196.8l-14.7,9.8c-11,7.3-25.9,3.5-33.3-7.5c-7.3-10.2-4.3-25.1,6.7-32.4l52-34.7
	c7.4-4.9,16.9-5.4,24.6-1.2c7.8,4.1,12.7,12.3,12.7,21.1v184h40c13.2,0,24,10.8,24,24S333.3,384,320,384z"/>
</svg>
