<?xml version="1.0" encoding="utf-8"?>
<!-- Generator: Adobe Illustrator 26.2.1, SVG Export Plug-In . SVG Version: 6.00 Build 0)  -->
<svg version="1.1" id="Layer_1" xmlns="http://www.w3.org/2000/svg" xmlns:xlink="http://www.w3.org/1999/xlink" x="0px" y="0px"
	 viewBox="0 0 512 512" style="enable-background:new 0 0 512 512;" xml:space="preserve">
<style type="text/css">
	.st0{fill:#FFFFFF;enable-background:new    ;}
</style>
<path class="st0" d="M256,0C114.6,0,0,114.6,0,256s114.6,256,256,256s256-114.6,256-256S397.4,0,256,0z M268,384h-44.6
	c-28.2,0-53.2-18-62.1-44.8c-4.2-12.6,2.6-26.2,15.2-30.4c12.5-4,26.1,2.7,30.3,15.2c2.4,7.2,9,12,16.6,12H268c19.8,0,36-16.2,36-36
	s-16.2-36-36-36h-52c-9.9,0-18.8-6.1-22.4-15.3c-3.6-9.2-1.1-19.7,6.2-26.4l50.5-46.3H184c-13.2,0-24-10.7-24-24s10.8-24,24-24h128
	c9.9,0,18.8,6.1,22.4,15.3s1.1,19.7-6.2,26.4l-51,46.8c42,4.6,74.8,40.3,74.8,83.5C352,346.3,314.3,384,268,384z"/>
</svg>
