<?xml version="1.0" encoding="utf-8"?>
<!-- Generator: Adobe Illustrator 26.2.1, SVG Export Plug-In . SVG Version: 6.00 Build 0)  -->
<svg version="1.1" id="Layer_1" xmlns="http://www.w3.org/2000/svg" xmlns:xlink="http://www.w3.org/1999/xlink" x="0px" y="0px"
	 viewBox="0 0 512 512" style="enable-background:new 0 0 512 512;" xml:space="preserve">
<style type="text/css">
	.st0{fill:#FFFFFF;enable-background:new    ;}
</style>
<path class="st0" d="M256,0C114.6,0,0,114.6,0,256s114.6,256,256,256s256-114.6,256-256S397.4,0,256,0z M328,320h-8v40
	c0,13.2-10.8,24-24,24s-24-10.8-24-24v-40H169.1c-8.1,0-15.6-4.1-20.1-10.8s-5.2-15.2-2-22.7l62-144c5.2-12.2,19.3-17.8,31.5-12.5
	c12.2,5.2,17.8,19.3,12.6,31.5L206.5,272H272v-50.7c0-13.2,10.8-24,24-24s24,10.8,24,24V272h8c13.3,0,24,10.8,24,24
	S341.3,320,328,320z"/>
</svg>
