<?xml version="1.0" encoding="utf-8"?>
<!-- Generator: Adobe Illustrator 26.2.1, SVG Export Plug-In . SVG Version: 6.00 Build 0)  -->
<svg version="1.1" id="Layer_1" xmlns="http://www.w3.org/2000/svg" xmlns:xlink="http://www.w3.org/1999/xlink" x="0px" y="0px"
	 viewBox="0 0 512 512" style="enable-background:new 0 0 512 512;" xml:space="preserve">
<style type="text/css">
	.st0{fill:#FFFFFF;enable-background:new    ;}
</style>
<path class="st0" d="M256,0C114.6,0,0,114.6,0,256s114.6,256,256,256s256-114.6,256-256S397.4,0,256,0z M328,384H184
	c-9.9,0-18.8-6.1-22.4-15.4c-3.6-9.2-1.1-19.8,6.3-26.4l108.4-98.3c7-6.9,11.3-17,11.3-27.7s-4.3-20.7-12-28.3
	c-16.2-15.9-42.7-15.9-59,0l-11,10.8c-9.5,9.4-25.5,9.2-33.9-0.3c-9.3-9.5-9.2-24.7,0.3-33.9l11-10.8c34.8-34.2,91.5-34.2,126.3,0
	c17,16.7,26.4,38.9,26.4,62.6s-9.4,45.9-26.4,62.6L246.2,336H328c13.2,0,24,10.8,24,24S341.3,384,328,384z"/>
</svg>
